<?xml version="1.0" encoding="utf-8"?>
<!-- Generator: Adobe Illustrator 27.5.0, SVG Export Plug-In . SVG Version: 6.00 Build 0)  -->
<svg version="1.1" xmlns="http://www.w3.org/2000/svg" xmlns:xlink="http://www.w3.org/1999/xlink" x="0px" y="0px"
	 viewBox="0 0 750 500" style="enable-background:new 0 0 750 500;" xml:space="preserve">
<g id="BACKGROUND">
	<path style="opacity:0.5;fill:#91B3FB;" d="M260.714,31.378c0,0-189.767-23.351-219.418,131.352
		C11.645,317.433,105.54,431.271,287.4,439.055s376.568,17.513,421.044-155.676c33.145-129.063,23.721-243.244-169.011-241.298
		C346.702,44.026,402.051,46.945,260.714,31.378z"/>
</g>
<g id="OBJECTS">
	<g>
		<ellipse style="fill:#DAE4FF;" cx="512.62" cy="465.819" rx="190.217" ry="15.236"/>
		<g>
			<g>
				<polygon style="fill:#4B4DF4;" points="483.505,397.975 465.224,450.6 540.008,450.6 521.173,385.788 				"/>
				<path style="opacity:0.5;fill:#1D1099;" d="M527.807,408.613l-6.633-22.826l-33.71,10.906c-1.685,1.667-3.432,3.325-5.242,4.975
					l-13.615,39.194C484.024,435.751,507.287,425.925,527.807,408.613z"/>
				<path style="fill:#0F046C;" d="M563.274,462.51c0,2.295-1.86,4.155-4.155,4.155H356.373c-2.295,0-4.155-1.86-4.155-4.155
					v-10.525c0-2.294,1.86-4.155,4.155-4.155h202.746c2.294,0,4.155,1.86,4.155,4.155V462.51z"/>
			</g>
			<g>
				<path style="fill:#6464FF;" d="M484.285,255.76c0,0,42.696,34.861,25.853,75.207c-16.844,40.345-68.157,76.774-155.898,55.622
					l-12.143,15.276c0,0,68.548,46.613,135.529,20.369c66.981-26.244,118.686-119.469,65.414-223.663
					C489.769,94.378,484.285,255.76,484.285,255.76z"/>
				<g>
					<g>
						<path style="fill:#4B4DF4;" d="M340.616,408.047c-1.622,1.622-4.253,1.622-5.875,0l-34.078-34.078
							c-1.623-1.623-1.623-4.253,0-5.875l38.387-38.387c1.622-1.623,4.253-1.623,5.876,0l34.078,34.078
							c1.623,1.622,1.623,4.253,0,5.876L340.616,408.047z"/>
						<path style="opacity:0.5;fill:#1D1099;" d="M372.54,376.123l6.463-6.463c1.623-1.623,1.623-4.253,0-5.876l-34.078-34.078
							c-1.623-1.623-4.253-1.622-5.876,0l-6.463,6.463L372.54,376.123z"/>
					</g>
					<path style="fill:#91B3FB;" d="M400.547,388.069c-1.623,1.623-4.253,1.623-5.876,0l-73.836-73.836
						c-1.623-1.623-1.623-4.253,0-5.876l0.392-0.392c1.623-1.623,4.253-1.623,5.875,0l73.836,73.836
						c1.623,1.623,1.623,4.253,0,5.875L400.547,388.069z"/>
				</g>
			</g>
			<g>
				<g>
					<g>
						<path style="fill:#6464FF;" d="M405.476,324.067c-1.343,1.344-3.521,1.344-4.865,0l-21.08-21.08
							c-1.344-1.343-1.344-3.521,0-4.865l166.855-167.686c1.344-1.344,3.521-1.344,4.865,0l21.08,21.08
							c1.344,1.344,1.344,3.521,0,4.865L405.476,324.067z"/>
						<path style="opacity:0.5;fill:#1D1099;" d="M566.17,162.543l6.162-6.162c1.344-1.343,1.344-3.521,0-4.865l-21.08-21.08
							c-1.344-1.344-3.521-1.344-4.865,0l-6.162,6.162L566.17,162.543z"/>
						<path style="fill:#91B3FB;" d="M576.467,161.489c-1.343,1.343-3.521,1.343-4.865,0l-29.836-29.837
							c-1.343-1.343-1.343-3.521,0-4.865l2.919-2.919c1.343-1.343,3.521-1.343,4.865,0l29.836,29.836
							c1.343,1.343,1.343,3.521,0,4.865L576.467,161.489z"/>
					</g>
					<path style="fill:#4B4DF4;" d="M427.195,319.314c-3.245,3.245-8.506,3.245-11.751,0l-30.161-30.161
						c-3.245-3.245-3.245-8.506,0-11.751l135.529-135.529c3.245-3.245,8.506-3.245,11.751,0l30.161,30.161
						c3.245,3.245,3.245,8.506,0,11.751L427.195,319.314z"/>
				</g>
				<g>
					<path style="opacity:0.5;fill:#0F046C;" d="M491.532,207.777c-11.357,11.357-11.357,29.771,0,41.129
						c11.358,11.358,29.771,11.358,41.129,0c11.358-11.357,11.358-29.771,0-41.129C521.303,196.419,502.889,196.419,491.532,207.777
						z"/>
					<path style="fill:#91B3FB;" d="M493.882,203.86c-11.358,11.357-11.358,29.771,0,41.128c11.357,11.358,29.771,11.358,41.129,0
						c11.357-11.357,11.357-29.771,0-41.128C523.654,192.502,505.239,192.502,493.882,203.86z"/>
				</g>
			</g>
		</g>
	</g>
	<g>
		<g>
			
				<ellipse transform="matrix(0.2224 -0.975 0.975 0.2224 -166.8297 497.5123)" style="fill:#FFFFFF;" cx="228.463" cy="353.337" rx="52.916" ry="52.916"/>
			<g>
				<g>
					<path style="fill:#DB5C52;" d="M221.054,353.337c0,4.092,3.317,7.409,7.409,7.409c4.092,0,7.409-3.317,7.409-7.409
						c0-4.092-3.317-7.409-7.409-7.409C224.371,345.929,221.054,349.246,221.054,353.337z"/>
					<g>
						<g>
							
								<ellipse style="fill:none;stroke:#91B3FB;stroke-width:1.8528;stroke-linecap:round;stroke-linejoin:round;stroke-miterlimit:10;" cx="228.463" cy="353.337" rx="32.471" ry="15.137"/>
						</g>
						<g>
							
								<path style="fill:none;stroke:#91B3FB;stroke-width:1.8528;stroke-linecap:round;stroke-linejoin:round;stroke-miterlimit:10;" d="
								M215.036,346.347c8.281-15.907,21.005-25.672,28.421-21.811c7.415,3.861,6.714,19.885-1.567,35.792
								c-8.281,15.906-21.006,25.672-28.421,21.811C206.053,378.278,206.755,362.254,215.036,346.347z"/>
						</g>
						<g>
							
								<path style="fill:none;stroke:#91B3FB;stroke-width:1.8528;stroke-linecap:round;stroke-linejoin:round;stroke-miterlimit:10;" d="
								M241.89,346.347c-8.281-15.907-21.006-25.672-28.421-21.811c-7.415,3.861-6.714,19.885,1.567,35.792
								c8.281,15.906,21.005,25.672,28.421,21.811C250.872,378.278,250.171,362.254,241.89,346.347z"/>
						</g>
					</g>
				</g>
				<g>
					<path style="fill:#FE7A6E;" d="M207.662,325.263c0,2.674,2.167,4.841,4.841,4.841c2.674,0,4.841-2.168,4.841-4.841
						c0-2.674-2.167-4.841-4.841-4.841C209.83,320.422,207.662,322.589,207.662,325.263z"/>
					<path style="fill:#FE7A6E;" d="M256.604,352.926c0,2.674,2.168,4.841,4.841,4.841c2.674,0,4.841-2.168,4.841-4.841
						s-2.168-4.841-4.841-4.841C258.772,348.085,256.604,350.252,256.604,352.926z"/>
					<path style="fill:#FE7A6E;" d="M209.365,382.291c0,2.674,2.167,4.841,4.841,4.841c2.674,0,4.841-2.167,4.841-4.841
						c0-2.674-2.167-4.841-4.841-4.841C211.532,377.449,209.365,379.617,209.365,382.291z"/>
				</g>
			</g>
		</g>
		<g>
			<circle style="fill:#FFFFFF;" cx="431.943" cy="115.052" r="59.62"/>
			<g>
				<g>
					<g>
						
							<rect x="382.165" y="81.385" transform="matrix(0.7071 -0.7071 0.7071 0.7071 59.9485 310.054)" style="fill:#4B4DF4;" width="44.186" height="2.549"/>
					</g>
					<g>
						
							<rect x="391.725" y="88.796" transform="matrix(0.7071 -0.7071 0.7071 0.7071 56.7685 317.1916)" style="fill:#4B4DF4;" width="39.087" height="2.549"/>
					</g>
					<g>
						
							<rect x="407.547" y="104.618" transform="matrix(0.7071 -0.7071 0.7071 0.7071 50.2078 333.0026)" style="fill:#4B4DF4;" width="39.087" height="2.549"/>
					</g>
					<g>
						
							<rect x="412.408" y="111.628" transform="matrix(0.7071 -0.7071 0.7071 0.7071 47.4346 340.3178)" style="fill:#4B4DF4;" width="44.186" height="2.549"/>
					</g>
					<g>
						
							<rect x="421.967" y="119.038" transform="matrix(0.7071 -0.7071 0.7071 0.7071 44.229 347.4122)" style="fill:#4B4DF4;" width="39.087" height="2.549"/>
					</g>
					<g>
						
							<rect x="438.391" y="135.462" transform="matrix(0.7071 -0.7071 0.7071 0.7071 37.4514 363.8808)" style="fill:#4B4DF4;" width="39.087" height="2.549"/>
					</g>
					<g>
						
							<rect x="443.252" y="142.471" transform="matrix(0.7071 -0.7071 0.7071 0.7071 34.6462 371.1386)" style="fill:#4B4DF4;" width="44.186" height="2.549"/>
					</g>
				</g>
				<g>
					<g>
						<g>
							<path style="fill:#DB5C52;" d="M416.833,130.661c-1.517-1.517-2.853-3.227-3.952-5.094
								c-4.011-6.81-4.257-14.824-0.676-21.986c1.433-2.866,3.344-5.329,5.191-7.711c0.424-0.547,0.849-1.094,1.269-1.648
								c2.449-3.229,3.923-6.454,4.508-9.859c1.125-6.556-1.256-13.461-6.198-18.028l2.643-2.865
								c5.912,5.445,8.743,13.709,7.397,21.553c-0.693,4.037-2.409,7.817-5.245,11.556c-0.428,0.565-0.862,1.123-1.294,1.681
								c-1.812,2.336-3.523,4.542-4.785,7.065c-2.979,5.958-2.78,12.615,0.548,18.265c3.464,5.882,9.672,9.922,16.2,10.544
								c6.917,0.659,12.233-3.329,17.862-7.552l0.074-0.055c6.498-4.875,13.159-6.859,19.795-5.898
								c5.976,0.865,11.365,3.958,15.176,8.708l-3.041,2.439c-3.192-3.977-7.699-6.566-12.694-7.289
								c-5.652-0.818-11.179,0.869-16.897,5.159l-0.074,0.056c-5.974,4.482-12.152,9.116-20.571,8.314
								C426.406,137.473,420.953,134.78,416.833,130.661z"/>
						</g>
					</g>
					<g>
						<g>
							<path style="fill:#FFB1B7;" d="M385.001,98.815c-0.699-0.699-1.354-1.445-1.959-2.236l3.096-2.368
								c4.896,6.398,13.733,9.289,21.493,7.026c3.6-1.05,6.549-3.323,9.67-5.729c3.059-2.358,6.221-4.796,10.147-6.128
								c6.545-2.221,13.792-1.269,19.882,2.613c5.376,3.427,9.385,8.789,10.998,14.712c1.819,6.674,0.268,13.728-4.486,20.399
								c-0.758,1.065-1.566,2.087-2.346,3.076c-1.745,2.21-3.393,4.298-4.46,6.737c-1.23,2.81-1.845,5.883-1.777,8.886
								c0.128,5.727,2.808,11.15,7.349,14.876l-2.473,3.014c-5.422-4.45-8.62-10.938-8.774-17.803
								c-0.08-3.567,0.647-7.21,2.103-10.537c1.268-2.898,3.151-5.283,4.972-7.589c0.751-0.952,1.528-1.936,2.231-2.923
								c4.11-5.768,5.422-11.525,3.9-17.112c-1.362-5-4.764-9.538-9.333-12.45c-5.088-3.244-11.115-4.049-16.534-2.209
								c-3.312,1.124-6.084,3.261-9.02,5.524c-3.27,2.521-6.653,5.129-10.959,6.384C400.411,107.403,391.063,104.877,385.001,98.815
								z"/>
						</g>
					</g>
				</g>
			</g>
		</g>
		<g>
			<g>
				<ellipse style="fill:#FFFFFF;" cx="260.443" cy="176.561" rx="109.982" ry="111.886"/>
				<polygon style="fill:#FFFFFF;" points="275.7,224.027 375.32,327.115 288.348,206.514 				"/>
			</g>
			<g>
				<g>
					<g>
						<path style="fill:#FFB1B7;" d="M241.317,206.201c0,0,17.559-41.785-39.103-54.92
							C202.214,151.281,202.974,193.072,241.317,206.201z"/>
						<path style="fill:#FF6861;" d="M241.317,206.201c0,0,0.923-27.43-39.103-54.92
							C202.214,151.281,202.974,193.072,241.317,206.201z"/>
					</g>
					<g>
						<path style="fill:#FF6861;" d="M262.754,162.276c0,0,3.301-18.686-10.574-28.372c-14.199-9.912-31.231-3.514-31.231-3.514
							S233.719,166.576,262.754,162.276z"/>
						<path style="opacity:0.5;fill:#FFB1B7;" d="M262.754,162.276c0,0,3.301-18.686-10.574-28.372
							c-14.199-9.912-31.231-3.514-31.231-3.514S255.247,136.985,262.754,162.276z"/>
					</g>
					<g>
						<path style="fill:#FF6861;" d="M284.124,175.299c0,0-3.51-24.974,24.613-34.197c28.123-9.222,45.501,1.947,45.501,1.947
							S313.844,194.614,284.124,175.299z"/>
						<path style="opacity:0.5;fill:#FFB1B7;" d="M284.124,175.299c0,0-3.51-24.974,24.613-34.197
							c28.123-9.222,45.501,1.947,45.501,1.947S327.929,138.625,284.124,175.299z"/>
					</g>
					<g>
						<path style="fill:#FF6861;" d="M272.04,220.298c0,0,0.032-22.294,25.792-26.869c25.76-4.576,39.58,7.36,39.58,7.36
							S295.649,240.896,272.04,220.298z"/>
						<path style="opacity:0.5;fill:#FFB1B7;" d="M272.04,220.298c0,0,0.032-22.294,25.792-26.869
							c25.76-4.576,39.58,7.36,39.58,7.36S314.936,193.645,272.04,220.298z"/>
					</g>
					<g>
						<path style="fill:#FF6861;" d="M277.183,145.898c0,0,23.952-5.364,16.356-31.898c-7.596-26.534-27.142-37.328-27.142-37.328
							S243.568,127.509,277.183,145.898z"/>
						<path style="opacity:0.5;fill:#FFB1B7;" d="M277.183,145.898c0,0,23.952-5.364,16.356-31.898
							c-7.596-26.534-27.142-37.328-27.142-37.328S284.996,97.16,277.183,145.898z"/>
					</g>
				</g>
				<g>
					<g>
						<g>
							<path style="fill:#B23F3F;" d="M277.184,113.004c2.363,58.185-25.869,111.177-57.627,157.955
								c-0.474,0.698,1.162,0.666,1.521,0.138c31.805-46.846,60.091-99.964,57.724-158.239
								C278.77,112.061,277.157,112.351,277.184,113.004L277.184,113.004z"/>
						</g>
					</g>
					<g>
						<g>
							<path style="fill:#B23F3F;" d="M340.625,143.528c-9.819,2.716-19.27,7.401-28.139,12.303
								c-20.736,11.46-38.981,27.152-53.626,45.75c-0.629,0.799,0.896,1.017,1.338,0.456c14.762-18.748,33.097-34.289,53.977-45.829
								c8.404-4.645,17.44-9.034,26.739-11.606C341.897,144.33,341.612,143.255,340.625,143.528L340.625,143.528z"/>
						</g>
					</g>
					<g>
						<g>
							<path style="fill:#B23F3F;" d="M214.831,162.805c7.614,4.946,13.624,12.9,17.904,20.748
								c11.398,20.901,8.813,45.485,0.56,66.987c-0.126,0.327,1.382-0.054,1.578-0.294c5.896-7.203,13.298-13.382,20.652-19.01
								c19.112-14.626,41.472-24.794,65.036-29.63c0.613-0.126,1.435-0.78,0.31-0.549c-22.879,4.695-44.347,14.188-63.335,27.764
								c-8.709,6.227-17.422,13.387-24.241,21.718c0.526-0.098,1.052-0.196,1.578-0.294c8.247-21.487,10.622-45.29-0.124-66.344
								c-4.173-8.176-10.59-16.554-18.403-21.63C215.974,162.03,214.647,162.686,214.831,162.805L214.831,162.805z"/>
						</g>
					</g>
					<g>
						<g>
							<path style="fill:#B23F3F;" d="M235.772,136.2c6.327,2.11,12.212,6.252,16.967,10.829
								c11.465,11.035,14.204,26.735,11.195,41.9c-0.067,0.339,1.505,0.087,1.579-0.291c3.016-15.199,0.296-30.203-10.672-41.56
								c-4.794-4.964-11.151-9.284-17.747-11.484C236.742,135.477,235.321,136.049,235.772,136.2L235.772,136.2z"/>
						</g>
					</g>
				</g>
			</g>
		</g>
	</g>
	<g>
		<g>
			<g>
				<g>
					<path style="fill:#0F046C;" d="M668.035,110.025c0,0-6.205-16.201,5.86-18.959c12.065-2.758,18.269,22.061,7.928,23.44
						c0,0,7.583,0.345,7.928-14.822c0,0,4.136,26.887-13.444,18.614C658.728,110.025,668.035,110.025,668.035,110.025z"/>
					<path style="fill:#FF6861;" d="M680.1,115.023c0,4.569-3.357,8.273-7.497,8.273s-7.497-3.704-7.497-8.273
						c0-4.569,3.357-8.273,7.497-8.273S680.1,110.454,680.1,115.023z"/>
				</g>
				<g>
					<path style="fill:#0F046C;" d="M639.424,112.438c-1.034,0.345-14.478-4.826-18.959,9.996
						c-4.481,14.822-1.379,31.024,5.515,37.918l0.345-21.717c0,0-1.724,16.546,7.239,20.338
						C642.527,162.765,639.424,112.438,639.424,112.438z"/>
					<g>
						<g>
							<path style="fill:#DD8685;" d="M646.1,163.032c0,0,2.831,10.683-1.289,12.229c-4.121,1.545-12.79,2.023-13.82,3.74
								c-1.03,1.717,22.665,9.959,46.016,0.859c0,0-13.194-2.142-10.738-24.117C668.695,134.028,646.1,163.032,646.1,163.032z"/>
							<g>
								<g>
									<path style="fill:#FFB1B7;" d="M649.421,114.162c0,0-20.191-0.941-21.027,19.648c-1.108,27.286,8.552,37.331,22.804,34.539
										c14.251-2.792,19.527-17.939,17.794-34.658C667.259,116.971,663.327,115.647,649.421,114.162z"/>
								</g>
							</g>
						</g>
					</g>
				</g>
				<g>
					<path style="fill:#0F046C;" d="M634.943,116.575c0,0,0.345,24,25.508,27.792l0.129-8.661c0,0-1.508-9.997-0.646,0
						c0.862,9.997,6.463,13.444,6.463,13.444s-1.81-15.684,4.74-15.339c6.549,0.345,1.465,14.693-2.671,13.659l-2.456,8.661
						c0,0,15.956-8.475,15.124-28.869c-0.689-16.891-16.381-25.701-34.471-23.44C632.875,105.544,634.943,116.575,634.943,116.575z"
						/>
					<path style="fill:#FFB1B7;" d="M666.94,145.949c0,0-1.894-14.855,5.413-13.865C679.66,133.074,672.894,153.542,666.94,145.949z
						"/>
				</g>
			</g>
			<g>
				<g>
					<path style="fill:#CC6464;" d="M670.118,146.292c0.182-0.428,0.346-0.861,0.471-1.296c0.119-0.431,0.192-0.894,0.117-1.264
						c-0.004-0.1-0.054-0.166-0.086-0.238c-0.021-0.083-0.108-0.098-0.144-0.157c-0.061-0.038-0.146-0.05-0.209-0.085
						c-0.083-0.015-0.183-0.009-0.27-0.022c-0.084-0.021-0.195,0.01-0.294,0.018c-0.102,0.015-0.201,0.02-0.303,0.04l-0.624,0.169
						l-0.524,0.142l-0.013-0.55c-0.03-1.264,0.039-2.507,0.249-3.758c0.099-0.625,0.24-1.248,0.455-1.861
						c0.108-0.307,0.219-0.613,0.377-0.912c0.126-0.305,0.342-0.59,0.541-0.87c0.25-0.264,0.5-0.525,0.857-0.697
						c0.155-0.112,0.352-0.146,0.542-0.19l0.284-0.06c0.179-0.006,0.182,0.007,0.281,0.009c0.248,0,0.768,0.087,1.064,0.312
						c0.344,0.193,0.563,0.53,0.714,0.847c0.139,0.327,0.206,0.659,0.239,0.985c0.027,0.326,0.013,0.648-0.016,0.963
						c-0.067,0.629-0.188,1.242-0.402,1.826c0.049-0.617,0.07-1.23,0.022-1.83c-0.023-0.3-0.078-0.592-0.137-0.875
						c-0.067-0.281-0.162-0.546-0.296-0.77c-0.148-0.209-0.297-0.406-0.51-0.489c-0.097-0.067-0.202-0.081-0.298-0.098
						c-0.072-0.038-0.245-0.026-0.397-0.02c-0.054,0.003-0.206,0.004-0.179,0.009l-0.163,0.053c-0.107,0.034-0.222,0.044-0.312,0.13
						c-0.204,0.105-0.366,0.303-0.534,0.492c-0.133,0.234-0.296,0.441-0.401,0.709c-0.126,0.248-0.219,0.521-0.311,0.796
						c-0.174,0.553-0.308,1.13-0.419,1.716c-0.206,1.172-0.342,2.386-0.401,3.579l-0.537-0.408l0.731-0.124
						c0.126-0.012,0.259-0.01,0.387-0.015c0.131,0.002,0.252-0.019,0.396,0.017c0.14,0.028,0.275,0.047,0.412,0.094
						c0.137,0.076,0.281,0.137,0.398,0.24c0.097,0.127,0.236,0.24,0.27,0.389c0.051,0.144,0.103,0.289,0.095,0.425
						c0.027,0.28-0.04,0.53-0.109,0.765c-0.068,0.238-0.167,0.457-0.268,0.672C670.66,145.529,670.407,145.926,670.118,146.292z"/>
				</g>
				<g>
					<path style="fill:#CC6464;" d="M640.027,142.04c0.075,0.885,0.048,1.771-0.029,2.653c-0.038,0.441-0.101,0.879-0.167,1.319
						c-0.069,0.439-0.164,0.873-0.264,1.309c-0.095,0.437-0.235,0.863-0.376,1.291c-0.146,0.427-0.303,0.852-0.518,1.26
						c-0.196,0.412-0.435,0.818-0.712,1.197l-0.472,0.543c-0.189,0.161-0.38,0.32-0.576,0.467l-0.062-0.725
						c1.13,0.63,2.244,1.292,3.307,2.061c-1.264-0.351-2.477-0.809-3.673-1.299l-0.527-0.216l0.464-0.509
						c0.13-0.143,0.269-0.27,0.404-0.402l0.35-0.477c0.199-0.352,0.418-0.692,0.581-1.078c0.094-0.183,0.169-0.379,0.243-0.576
						c0.079-0.195,0.169-0.383,0.234-0.586c0.15-0.396,0.272-0.802,0.405-1.209C639.145,145.428,639.556,143.745,640.027,142.04z"/>
				</g>
				<g>
					<path style="fill:#CC6464;" d="M638.089,157.293c0,0,0.78,0.266,1.94,0.525c0.583,0.122,1.258,0.249,1.983,0.315
						c0.361,0.045,0.737,0.033,1.114,0.058c0.376-0.025,0.763,0.006,1.138-0.068c0.38-0.033,0.757-0.082,1.118-0.185
						c0.369-0.071,0.718-0.185,1.055-0.309c0.347-0.1,0.65-0.27,0.952-0.408c0.308-0.13,0.576-0.297,0.823-0.457
						c0.242-0.165,0.497-0.281,0.682-0.435c0.193-0.149,0.362-0.279,0.501-0.386c0.291-0.21,0.457-0.33,0.457-0.33
						s-0.116,0.169-0.318,0.463c-0.108,0.146-0.239,0.322-0.389,0.525c-0.15,0.207-0.372,0.386-0.597,0.605
						c-0.225,0.22-0.477,0.454-0.792,0.636c-0.304,0.196-0.615,0.434-0.991,0.572c-0.364,0.162-0.739,0.346-1.153,0.428
						c-0.404,0.125-0.823,0.195-1.247,0.241c-0.423,0.068-0.849,0.026-1.265,0.039c-0.414-0.029-0.822-0.075-1.208-0.149
						c-0.774-0.143-1.468-0.382-2.036-0.631C638.713,157.846,638.089,157.293,638.089,157.293z"/>
				</g>
				<g>
					<path style="fill:#030121;" d="M629.945,137.128c0,0,0.013-0.192,0.119-0.505c0.108-0.309,0.298-0.754,0.672-1.196
						c0.173-0.236,0.408-0.45,0.665-0.677c0.28-0.191,0.575-0.418,0.934-0.555c0.694-0.336,1.548-0.448,2.357-0.38
						c0.396,0.069,0.811,0.101,1.165,0.258c0.364,0.13,0.726,0.259,1.021,0.459c0.301,0.191,0.606,0.357,0.842,0.573
						c0.24,0.212,0.453,0.427,0.644,0.625c0.387,0.388,0.609,0.809,0.78,1.077c0.161,0.28,0.236,0.45,0.236,0.45
						s-0.192-0.041-0.497-0.132c-0.31-0.082-0.707-0.256-1.185-0.411c-0.241-0.075-0.495-0.155-0.75-0.255
						c-0.254-0.105-0.536-0.148-0.804-0.245c-0.268-0.108-0.552-0.135-0.826-0.208c-0.276-0.086-0.55-0.085-0.823-0.132
						c-0.271-0.038-0.539-0.022-0.804-0.032c-0.26,0.031-0.526,0.026-0.778,0.089c-0.514,0.078-1.006,0.246-1.446,0.425
						c-0.438,0.181-0.815,0.379-1.087,0.526C630.107,137.026,629.945,137.128,629.945,137.128z"/>
				</g>
				<g>
					<path style="fill:#030121;" d="M642.871,137.515c0,0,0.069-0.266,0.279-0.696c0.205-0.432,0.552-1.028,1.101-1.655
						c0.273-0.315,0.587-0.649,0.975-0.943c0.361-0.327,0.818-0.592,1.29-0.858c0.503-0.209,1.012-0.487,1.597-0.582
						c0.567-0.173,1.17-0.17,1.77-0.189c0.592,0.031,1.189,0.139,1.746,0.281c0.536,0.203,1.08,0.39,1.54,0.658
						c0.458,0.273,0.887,0.559,1.271,0.844c0.358,0.317,0.676,0.636,0.963,0.929c0.305,0.275,0.525,0.581,0.71,0.859
						c0.195,0.268,0.347,0.515,0.474,0.713c0.25,0.402,0.374,0.639,0.374,0.639s-0.253-0.12-0.662-0.346
						c-0.202-0.115-0.45-0.249-0.714-0.418c-0.264-0.17-0.567-0.35-0.912-0.512c-0.34-0.169-0.702-0.351-1.063-0.564
						c-0.387-0.163-0.802-0.299-1.201-0.49c-0.405-0.18-0.858-0.215-1.279-0.37c-0.436-0.062-0.876-0.142-1.315-0.158
						c-0.439,0.013-0.88-0.012-1.309,0.086c-0.437,0.039-0.855,0.176-1.272,0.286c-0.391,0.178-0.815,0.277-1.174,0.482
						c-0.372,0.178-0.723,0.364-1.046,0.553c-0.638,0.383-1.18,0.742-1.55,1.014C643.086,137.344,642.871,137.515,642.871,137.515z"
						/>
				</g>
				<g>
					<path style="fill:#030121;" d="M638.218,141.911c0,0,0.102,0.769-0.18,1.905c-0.144,0.563-0.389,1.229-0.888,1.84
						c-0.256,0.293-0.552,0.607-0.953,0.792c-0.381,0.214-0.829,0.312-1.265,0.34l-0.082,0.006c-0.035-0.001,0.02,0.006-0.088-0.001
						l-0.035-0.004l-0.139-0.015l-0.277-0.031c-0.201-0.036-0.464-0.122-0.674-0.203c-0.4-0.198-0.747-0.48-0.984-0.803
						c-0.263-0.31-0.412-0.66-0.539-0.982c-0.124-0.324-0.193-0.64-0.24-0.929c-0.177-1.163,0.011-1.916,0.011-1.916
						s0.151,0.758,0.535,1.769c0.2,0.498,0.476,1.062,0.891,1.492c0.195,0.232,0.458,0.365,0.71,0.499
						c0.135,0.035,0.225,0.079,0.386,0.11l0.278,0.022l0.139,0.011l0.035,0.003c-0.085-0.004-0.007-0.003-0.019-0.005l0.057-0.007
						c0.306-0.014,0.608-0.064,0.872-0.205c0.274-0.116,0.518-0.309,0.737-0.522c0.439-0.433,0.758-0.976,1.003-1.456
						C637.985,142.645,638.218,141.911,638.218,141.911z"/>
				</g>
				<g>
					<path style="fill:#030121;" d="M652.566,142.557c0,0,0.102,0.769-0.18,1.905c-0.143,0.563-0.389,1.229-0.888,1.84
						c-0.256,0.292-0.552,0.607-0.953,0.792c-0.381,0.214-0.829,0.312-1.265,0.341l-0.082,0.006
						c-0.035-0.001,0.02,0.006-0.088-0.001l-0.035-0.004l-0.139-0.016l-0.277-0.031c-0.201-0.036-0.464-0.122-0.674-0.203
						c-0.399-0.198-0.747-0.48-0.984-0.803c-0.263-0.31-0.413-0.66-0.539-0.982c-0.124-0.324-0.193-0.64-0.24-0.929
						c-0.177-1.163,0.011-1.916,0.011-1.916s0.151,0.758,0.535,1.769c0.2,0.498,0.476,1.062,0.891,1.492
						c0.195,0.232,0.458,0.365,0.71,0.499c0.135,0.035,0.225,0.079,0.386,0.11l0.278,0.022l0.139,0.011l0.035,0.003
						c-0.085-0.004-0.007-0.003-0.019-0.005l0.057-0.007c0.306-0.014,0.607-0.064,0.872-0.205c0.274-0.116,0.519-0.309,0.737-0.522
						c0.439-0.433,0.758-0.976,1.003-1.456C652.334,143.291,652.566,142.557,652.566,142.557z"/>
				</g>
			</g>
		</g>
		<g>
			<g>
				<g>
					<path style="fill:#FFB1B7;" d="M633.906,424.362c0,0-2.303,34.522-5.167,35.198c-9.807,2.315-43.556,4.792-11.253-3.309
						c0,0-4.344-23.219-7.251-53.795C607.328,371.88,633.906,424.362,633.906,424.362z"/>
					<path style="fill:#4B4DF4;" d="M630.468,456.385c0,0-0.429,4.904-1.727,5.05c-1.298,0.145-44.277,4.215-16.446-3.882
						C612.295,457.553,604.221,462.03,630.468,456.385z"/>
				</g>
				<path style="fill:#4B4DF4;" d="M654.241,255.553c0,0-2.884,33.008-9.646,68.19c-6.762,35.182-10.341,126.163-10.341,126.163
					s-7.584,6.205-19.993,0c0,0-20.151-162.445-5.4-199.519C622.656,215.716,654.241,255.553,654.241,255.553z"/>
			</g>
			<g>
				<g>
					<path style="fill:#FFB1B7;" d="M671.701,431.116c0,0-2.304,34.522-5.167,35.197c-9.807,2.315-43.556,4.792-11.253-3.309
						c0,0-4.344-23.219-7.251-53.795C645.122,378.634,671.701,431.116,671.701,431.116z"/>
					<path style="fill:#4B4DF4;" d="M668.262,463.139c0,0-0.429,4.904-1.727,5.049c-1.298,0.145-44.277,4.215-16.446-3.882
						C650.089,464.307,642.015,468.784,668.262,463.139z"/>
				</g>
				<path style="fill:#6464FF;" d="M672.516,253.423c0,0,14.468,27.707,11.781,65.076s-11.092,138.99-11.092,138.99
					s-9.996,5.171-21.716-0.69c0,0-19.641-159.738-23.44-198.206C624.25,220.126,672.516,253.423,672.516,253.423z"/>
			</g>
		</g>
		<g>
			<g>
				<g>
					<path style="fill:#4B4DF4;" d="M669.135,176.913c0,0-13.116,10.676-32.638,0.61l-3.05,47.585l6.406,2.44L669.135,176.913z"/>
					<path style="opacity:0.5;fill:#1D1099;" d="M650.834,208.558l-10.982,18.99l-6.406-2.44l1.909-29.781
						C640.484,199.773,645.648,204.179,650.834,208.558z"/>
				</g>
				<g>
					<path style="fill:#FFFFFF;" d="M668.651,172.212c0,0,5.922,4.064,13.573,7.058c12.487,4.886,21.156,11.428,13.573,22.802
						c-6.515,9.772-22.922,46.097-22.922,46.097s25.305,80.09,22.048,130.038c0,0-42.054,17.235-99.276,1.379
						c0,0,7.808-108.231,10.993-139.017c3.258-31.489,1.811-40.938,5.006-54.783c1.629-7.058,27.145-11.401,27.145-11.401
						l-3.8,54.834L668.651,172.212z"/>
					<path style="fill:#E7EDFD;" d="M681.923,228.721c-6.918-0.79-13.819-1.717-20.693-2.838
						c-7.323-1.194-14.625-2.519-21.888-4.036l-4.352,7.37l0.567-8.182c-3.689-0.808-7.368-1.663-11.031-2.587
						c-5.08-1.282-10.114-2.603-15.06-4.334c-0.232-0.081-0.466-0.164-0.701-0.249c-0.389,6.864-0.951,15.345-2.126,26.702
						c-3.185,30.786-10.993,139.017-10.993,139.017c57.221,15.857,99.276-1.379,99.276-1.379
						c3.258-49.948-22.048-130.038-22.048-130.038S676.993,239.05,681.923,228.721z"/>
					<g>
						<polygon style="fill:#DAE4FF;" points="674.985,175.651 677.771,194.075 677.818,194.385 677.499,194.363 663.375,193.393 
							663.696,192.797 669.91,200.712 670.179,201.055 669.839,201.334 652.597,215.498 643.973,222.578 635.318,229.618 
							634.666,230.149 634.485,229.33 630.818,212.671 627.206,196.001 627.149,195.738 627.374,195.602 635.011,190.955 
							635.091,191.508 624.628,188.493 624.422,188.433 624.511,188.244 630.104,176.375 624.84,188.393 624.724,188.145 
							635.253,190.921 635.927,191.098 635.332,191.473 627.768,196.237 627.936,195.838 631.743,212.465 635.496,229.105 
							634.663,228.817 643.29,221.742 651.949,214.706 669.272,200.639 669.201,201.26 663.109,193.251 662.602,192.583 
							663.431,192.654 677.538,193.856 677.266,194.144 						"/>
					</g>
				</g>
			</g>
			<g>
				<g>
					<path style="fill:#0F046C;" d="M594.369,205.49c0.435,0.515,0.37,1.285-0.145,1.719l0,0c-0.515,0.435-1.285,0.37-1.72-0.145
						l-21.25-25.173c-0.435-0.515-0.37-1.285,0.145-1.719l0,0c0.515-0.435,1.285-0.369,1.719,0.145L594.369,205.49z"/>
					<polygon style="fill:#FF6861;" points="641.324,254.553 601.873,260.344 576.537,200.986 617.075,193.748 					"/>
					<polygon style="fill:#FFB1B7;" points="607.519,198.57 605.079,193.385 587.082,196.435 589.522,201.926 					"/>
				</g>
				<g>
					<path style="fill:#FFB1B7;" d="M647.477,228.856c0,0-13.03-9.41-17.011-7.601c-3.981,1.81-26.06,9.41-0.724,3.257
						c0,0-27.507,11.22,1.086,2.534c0,0-23.888,12.306,0.724,2.534c0,0-17.011,9.41,1.448,1.81l7.963,6.515L647.477,228.856z"/>
					<path style="fill:#FFFFFF;" d="M691.272,183.613c0,0,11.582,2.172,7.963,23.526c-3.619,21.354-12.668,54.653-23.164,54.653
						c-10.496,0-40.175-24.974-40.175-24.974l7.601-11.944l28.231,13.392C671.727,238.266,676.794,192.662,691.272,183.613z"/>
				</g>
			</g>
		</g>
	</g>
	<g>
		<ellipse style="fill:#DAE4FF;" cx="106.402" cy="462.819" rx="69.081" ry="12.236"/>
		<g>
			<g>
				<g>
					<g>
						<g>
							<path style="fill:#0F046C;" d="M109.291,422.926c0,0,1.745,34.449,4.702,35.147c10.126,2.391,54.396,4.289,12.64-4.063
								c0,0,4.099-22.132,7.101-53.705C136.735,368.732,109.291,422.926,109.291,422.926z"/>
						</g>
					</g>
					<g>
						<path style="fill:#4B4DF4;" d="M88.293,248.611c0,0,8.088,32.645,14.855,69.015c5.507,29.602,5.784,131.677,5.784,131.677
							s7.831,6.407,20.645,0c0,0,20.809-167.744,5.576-206.027C120.908,207.474,88.293,248.611,88.293,248.611z"/>
						<path style="opacity:0.5;fill:#1D1099;" d="M107.943,388.675c9.538-0.505,18.983-1.712,28.245-3.901
							c4.412-51.624,7.928-118.971-1.035-141.498c-14.245-35.802-46.86,5.335-46.86,5.335s8.088,32.645,14.855,69.015
							C105.717,331.44,107.148,361.035,107.943,388.675z"/>
					</g>
				</g>
				<g>
					<g>
						<path style="fill:#0F046C;" d="M70.263,429.901c0,0,2.379,35.648,5.335,36.345c10.126,2.391,51.851,4.677,12.212-4.336
							c0,0,3.894-23.057,6.896-54.631C97.708,375.706,70.263,429.901,70.263,429.901z"/>
					</g>
					<g>
						<path style="fill:#6464FF;" d="M69.421,246.411c0,0-8.976,24.365-6.202,62.954c2.774,38.588,5.49,147.769,5.49,147.769
							s10.322,5.339,22.425-0.712c0,0,20.281-164.948,24.204-204.671C119.262,212.028,69.421,246.411,69.421,246.411z"/>
						<path style="opacity:0.5;fill:#1D1099;" d="M66.68,387.773c6.77,0.508,13.535,0.746,20.111,1.001
							c4.196,0.163,8.386,0.225,12.564,0.177c6.1-50.426,13.733-114.414,15.983-137.2c3.923-39.723-45.917-5.339-45.917-5.339
							s-8.976,24.365-6.202,62.954C64.465,326.693,65.699,358.254,66.68,387.773z"/>
					</g>
				</g>
			</g>
			<g>
				<g>
					<g>
						<polygon style="fill:#DD8685;" points="182.795,178.782 176.041,192.721 186.531,200.696 196.015,187.044 190.268,178.71 
													"/>
						<g>
							<path style="fill:#91B3FB;" d="M187.516,201.444c0.332,1.941,2.175,3.245,4.116,2.913l0.562-0.096
								c1.941-0.332,3.245-2.175,2.913-4.116l-6.073-35.493c-0.332-1.941-1.634-0.082-3.574,0.25l-0.562,0.096
								c-1.941,0.332-3.786-0.988-3.454,0.953L187.516,201.444z"/>
							<path style="fill:#B23F3F;" d="M183.916,173.312l4.618,26.987c0.229,1.338,1.499,2.236,2.836,2.007l0.387-0.066
								c1.338-0.229,2.236-1.499,2.008-2.836l-4.543-26.547C187.452,172.983,185.684,173.138,183.916,173.312z"/>
							<path style="opacity:0.15;fill:#111D3A;" d="M181.664,167.245l-0.221-1.294c-0.332-1.941,1.513-0.621,3.454-0.953
								l0.562-0.096c1.941-0.332,3.242-2.191,3.574-0.25l0.221,1.294L181.664,167.245z"/>
							<path style="fill:#91B3FB;" d="M179.085,164.852c0.102,0.595,0.667,0.995,1.262,0.893l9.518-1.629
								c0.595-0.102,0.995-0.667,0.893-1.262l0,0c-0.102-0.595-0.667-0.995-1.262-0.893l-9.518,1.629
								C179.383,163.692,178.984,164.257,179.085,164.852L179.085,164.852z"/>
						</g>
						<g>
							<g>
								<path style="fill:#FFB1B7;" d="M179.203,190.711c0,0-2.373-8.162-2.102-10.112c0.271-1.95,3.78-4.911,5.269-4.517
									c1.488,0.394,4.108,2.067,3.856,3.716c-0.253,1.648-3.654,0.381-3.654,0.381l-1.071,2.657c0,0,6.264,1.443,5.359,8.799
									C185.955,198.991,180.282,195.315,179.203,190.711z"/>
								<path style="fill:#FFB1B7;" d="M187.586,178.375c0,0,2.28-6.398,4.786-6.245c2.506,0.154,0.161,5.054,0.161,5.054
									s2.521-2.648,3.201-0.924c0.68,1.723-0.61,4.82-0.61,4.82s1.994-1.746,1.811,1.232c-0.183,2.978-4.396,7.576-5.435,6.578
									c-1.039-0.998,2.268-6.212,2.268-6.212s-3.017,5.606-4.393,4.961c-1.376-0.645,2.539-8.064,2.539-8.064
									s-4.552,7.567-5.714,6.001C185.039,184.01,187.586,178.375,187.586,178.375z"/>
								<path style="fill:#FFB1B7;" d="M196.087,184.242c0,0,2.155-2.802,2.874-0.359c0.719,2.443-4.814,8.55-6.035,7.975
									C191.704,191.284,196.087,184.242,196.087,184.242z"/>
							</g>
						</g>
					</g>
					<g>
						<path style="fill:#FFFFFF;" d="M131.372,174.781c0,0,16.866,38.207,22.029,47.845l22.029-32.011l12.736,9.294
							c0,0-25.471,49.91-38.207,50.254c-12.736,0.344-23.406-35.797-23.406-35.797L131.372,174.781z"/>
						<path style="fill:#E7EDFD;" d="M175.43,190.614l-22.029,32.011c-2.417-4.511-7.397-15.28-12.011-25.461
							c-4.461,6.599-9.272,12.978-14.185,19.271c2.488,7.649,11.863,34.021,22.754,33.727c12.736-0.344,38.207-50.254,38.207-50.254
							L175.43,190.614z"/>
					</g>
				</g>
				<g>
					<g>
						<path style="fill:#DD8685;" d="M96.699,153.072c0,0-2.924,11.032,1.332,12.627c4.255,1.596,13.207,2.089,14.271,3.862
							c1.064,1.773-23.404,10.284-47.517,0.887c0,0,13.624-2.212,11.088-24.904C73.367,123.122,96.699,153.072,96.699,153.072z"/>
						<g>
							<path style="fill:#4B4DF4;" d="M72.912,167.406c0,0,13.544,11.024,33.703,0.63l5.656,54.492l-6.614,2.52L72.912,167.406z"/>
							<path style="opacity:0.5;fill:#1D1099;" d="M91.81,200.083l13.156,25.234l6.614-2.52l-3.787-36.378
								C102.498,191.012,97.166,195.561,91.81,200.083z"/>
						</g>
					</g>
					<g>
						<g>
							<g>
								<path style="fill:#FFFFFF;" d="M73.412,162.552c0,0-6.115,4.197-14.015,7.288c-12.894,5.046-16.788,10.445-16.83,24.561
									c-0.061,20.29,11.703,46.812,11.703,46.812s-11.349,82.476-7.986,134.053c0,0,43.426,17.798,102.514,1.424
									c0,0-8.063-111.762-11.352-143.552c-3.364-32.516-1.87-42.273-5.169-56.57c-1.682-7.288-28.031-11.773-28.031-11.773
									l3.924,56.622L73.412,162.552z"/>
							</g>
							<g>
								<path style="fill:#E7EDFD;" d="M136.21,219.719c-9.539-1.523-19.041-3.182-28.503-4.993l0.464,6.691l-4.408-7.465
									c-20.501-4.02-40.822-8.749-60.965-14.28c1.623,19.323,11.472,41.541,11.472,41.541s-11.349,82.476-7.986,134.053
									c0,0,43.426,17.798,102.514,1.424c0,0-8.063-111.762-11.352-143.552C136.932,228.163,136.532,223.726,136.21,219.719z"/>
							</g>
						</g>
						<g>
							<path style="fill:#DAE4FF;" d="M62.348,169.246l1.889,17.191l-0.288-0.193c5.158-1.655,10.337-3.237,15.505-4.856
								l0.731-0.229l-0.284,0.718l-5.18,13.086l-0.142-0.543l17.942,14.253c5.981,4.75,11.966,9.496,17.914,14.288l-0.859,0.291
								c3.008-11.926,5.94-23.871,9.017-35.78l0.275,0.481l-10.25-3.129l-1.101-0.336l1.109-0.285l11.414-2.937l-0.132,0.279
								l-6.201-14.242l6.57,14.076l0.1,0.214l-0.232,0.065l-11.351,3.17l0.008-0.621l10.294,2.978l0.365,0.106l-0.089,0.376
								c-2.845,11.966-5.835,23.897-8.751,35.846l-0.199,0.814l-0.661-0.523c-5.99-4.74-11.943-9.525-17.899-14.307l-17.871-14.342
								l-0.275-0.221l0.133-0.322l5.37-13.01l0.447,0.489c-5.196,1.527-10.381,3.091-15.588,4.583l-0.265,0.076l-0.023-0.269
								L62.348,169.246z"/>
						</g>
					</g>
				</g>
				<g>
					<g>
						<g>
							<g>
								<path style="fill:#91B3FB;" d="M145.176,239.941l0.893-13.648c0.126-1.925-1.467-1.54-3.392-1.666
									c-1.925-0.126-3.454-0.716-3.581,1.21l-0.908,13.867c-17.416,20.468-16.521,26.31-16.521,26.31
									c-0.206,3.147,2.178,5.865,5.325,6.071l25.072,1.641c3.147,0.206,5.865-2.178,6.071-5.325
									C158.137,268.4,158.981,259.813,145.176,239.941z"/>
								<path style="fill:#B23F3F;" d="M129.137,256.223c-4.383,6.812-4.039,9.059-4.039,9.059c-0.168,2.566,1.776,4.782,4.342,4.95
									l20.44,1.338c2.566,0.168,4.782-1.776,4.95-4.341c0,0,0.278-2.887-2.491-9.231
									C144.601,257.394,136.868,256.789,129.137,256.223z"/>
							</g>
							<g>
								<path style="fill:#6464FF;" d="M145.93,228.427l0.14-2.134c0.126-1.925-1.467-1.54-3.392-1.666
									c-1.925-0.126-3.454-0.716-3.581,1.21l-0.14,2.134L145.93,228.427z"/>
								<path style="fill:#91B3FB;" d="M147.65,225.87c-0.032,0.488-0.453,0.857-0.941,0.825l-8.299-0.543
									c-0.488-0.032-0.857-0.453-0.825-0.941l0.009-0.133c0.032-0.487,0.453-0.857,0.941-0.825l8.298,0.543
									c0.488,0.032,0.857,0.453,0.825,0.941L147.65,225.87z"/>
							</g>
						</g>
						<g>
							<path style="fill:#FFB1B7;" d="M125.521,232.091c3.098,0,24.267-3.872,20.91,1.291c0,0,4.389,1.033,0.258,3.614
								c0,0,2.581,1.807,0,3.098c0,0,2.581,2.582-4.131,4.389c-6.712,1.807-19.362,2.323-19.362,2.323L125.521,232.091z"/>
							<path style="fill:#FFB1B7;" d="M125.521,232.091c0,0,21.685-10.326,9.552,0.258
								C122.939,242.934,125.521,232.091,125.521,232.091z"/>
						</g>
					</g>
					<path style="fill:#FFFFFF;" d="M59.397,169.84c0,0-22.681,3.392-16.486,34.887s22.717,49.566,27.881,52.147
						c5.163,2.582,52.399-4.383,57.827-9.81c3.098-3.098-3.098-17.038-3.098-17.038l-45.435,2.582l-19.103-62.473"/>
				</g>
			</g>
			<g>
				<g>
					<g>
						<g>
							<g>
								<path style="fill:#FFB1B7;" d="M93.108,100.16c0,0,20.852-0.934,21.846,22.297c1.317,30.787-8.599,42.057-23.339,38.818
									c-14.74-3.239-20.285-20.359-18.601-39.209C74.698,103.217,78.752,101.749,93.108,100.16z"/>
							</g>
						</g>
						<path style="fill:#FFB1B7;" d="M75.179,135.432c0,0,1.956-15.34-5.589-14.317C62.044,122.137,69.031,143.272,75.179,135.432z"
							/>
					</g>
					<g>
						<path style="fill:#0F046C;" d="M68.038,121.601c0,0,6.368-1.721,6.368,5.852c0,7.572-1.377,9.638-1.377,9.638
							s-7.056,28.397,20.652,29.257c29.329,0.911,19.964-23.406,19.964-23.406s-2.237,9.638-4.991,9.638
							c-2.754,0,1.205-8.605-4.13-9.466c-4.261-0.687-18.071-7.228-19.792,4.475c-1.721,11.703-6.712,3.614-6.884-4.647
							c-0.172-8.261,1.549-22.89,1.549-22.89s6.54-2.582,6.54-12.047c0,0,25.127,10.154,31.667,0.516l-3.442,0.172
							c0,0,7.4-4.647,7.573-14.629c0,0-9.81,2.065-23.406-3.786c-13.596-5.851-20.824,4.647-20.824,4.647s-9.294-0.516-12.219,8.089
							C62.359,111.619,68.038,121.601,68.038,121.601z"/>
						<path style="opacity:0.4;fill:#030121;" d="M86.002,143.858c-0.599,0.965-1.042,2.185-1.27,3.731
							c-1.721,11.703-6.712,3.614-6.884-4.647c-0.172-8.261,1.549-22.89,1.549-22.89s6.54-2.582,6.54-12.047
							c0,0,4.782,1.932,10.716,3.311c-1.74-1.972-3.186-4.301-4.239-7.063c-1.915-5.026-2.533-10.35-2.677-15.729
							c-8.025,0.305-12.232,6.402-12.232,6.402s-9.294-0.516-12.219,8.089c-2.926,8.605,2.754,18.587,2.754,18.587
							s6.368-1.721,6.368,5.852c0,7.572-1.377,9.638-1.377,9.638s-5.657,22.826,13.158,28.16
							C84.111,158.425,84.392,150.975,86.002,143.858z"/>
					</g>
				</g>
				<g>
					<g>
						<path style="fill:#CC6464;" d="M71.897,135.786c-0.298-0.378-0.559-0.788-0.77-1.231c-0.105-0.222-0.206-0.448-0.276-0.694
							c-0.071-0.242-0.14-0.5-0.113-0.789c-0.008-0.14,0.045-0.29,0.098-0.439c0.035-0.154,0.179-0.271,0.279-0.402
							c0.121-0.106,0.269-0.17,0.411-0.248c0.141-0.049,0.281-0.069,0.425-0.098c0.149-0.038,0.273-0.016,0.409-0.018
							c0.133,0.005,0.27,0.003,0.4,0.015l0.755,0.128l-0.554,0.421c-0.061-1.232-0.201-2.486-0.414-3.696
							c-0.115-0.605-0.253-1.201-0.432-1.772c-0.094-0.284-0.19-0.566-0.321-0.822c-0.108-0.277-0.276-0.491-0.414-0.732
							c-0.173-0.195-0.34-0.4-0.551-0.508c-0.093-0.089-0.211-0.1-0.322-0.135l-0.168-0.055c0.028-0.006-0.129-0.006-0.185-0.009
							c-0.158-0.006-0.336-0.019-0.41,0.021c-0.1,0.018-0.208,0.032-0.308,0.101c-0.221,0.086-0.375,0.289-0.527,0.505
							c-0.138,0.232-0.237,0.506-0.306,0.796c-0.061,0.292-0.118,0.594-0.142,0.903c-0.05,0.619-0.028,1.252,0.023,1.889
							c-0.22-0.603-0.345-1.237-0.415-1.886c-0.031-0.325-0.044-0.657-0.017-0.994c0.034-0.336,0.103-0.679,0.247-1.017
							c0.155-0.327,0.382-0.675,0.737-0.874c0.305-0.232,0.843-0.322,1.099-0.322c0.103-0.003,0.106-0.015,0.29-0.009l0.293,0.062
							c0.196,0.046,0.399,0.08,0.559,0.196c0.368,0.177,0.626,0.447,0.885,0.719c0.205,0.289,0.429,0.584,0.559,0.898
							c0.163,0.309,0.277,0.625,0.389,0.942c0.221,0.633,0.367,1.277,0.47,1.922c0.217,1.291,0.288,2.575,0.257,3.88l-0.013,0.567
							l-0.541-0.146l-0.645-0.174c-0.106-0.02-0.208-0.026-0.313-0.041c-0.102-0.009-0.217-0.04-0.303-0.019
							c-0.09,0.013-0.192,0.007-0.278,0.023c-0.066,0.036-0.153,0.049-0.216,0.088c-0.036,0.061-0.127,0.076-0.148,0.162
							c-0.033,0.074-0.085,0.142-0.089,0.245c-0.043,0.183-0.043,0.41-0.014,0.63c0.021,0.223,0.076,0.45,0.135,0.676
							C71.54,134.897,71.709,135.344,71.897,135.786z"/>
					</g>
					<g>
						<path style="fill:#CC6464;" d="M102.459,126.592c0.967,2.455,1.728,4.962,2.421,7.485c0.336,1.264,0.676,2.527,0.966,3.803
							c0.307,1.271,0.58,2.551,0.839,3.834l0.107,0.53l-0.492,0.073c-1.897,0.282-3.803,0.521-5.735,0.626
							c1.827-0.636,3.681-1.137,5.543-1.596l-0.384,0.603c-0.365-1.257-0.717-2.517-1.034-3.786
							c-0.335-1.264-0.618-2.541-0.907-3.817C103.228,131.79,102.74,129.216,102.459,126.592z"/>
					</g>
					<g>
						<path style="fill:#030121;" d="M114.069,124.741c0,0-0.207-0.096-0.569-0.264c-0.349-0.168-0.846-0.39-1.41-0.636
							c-0.291-0.108-0.581-0.254-0.904-0.356c-0.311-0.129-0.644-0.222-0.975-0.325c-0.333-0.095-0.675-0.165-1.011-0.229
							c-0.34-0.033-0.676-0.106-1.011-0.077c-0.338-0.044-0.664,0.042-0.997,0.061c-0.332,0.034-0.648,0.163-0.981,0.214
							c-0.326,0.12-0.642,0.236-0.941,0.346c-0.309,0.115-0.582,0.291-0.864,0.411c-0.281,0.125-0.551,0.24-0.766,0.382
							c-0.219,0.135-0.431,0.239-0.604,0.33c-0.349,0.18-0.577,0.272-0.577,0.272s0.061-0.222,0.217-0.593
							c0.08-0.184,0.174-0.414,0.307-0.663c0.116-0.263,0.291-0.528,0.516-0.799c0.226-0.268,0.45-0.589,0.763-0.86
							c0.325-0.256,0.67-0.542,1.068-0.785c0.429-0.188,0.864-0.443,1.359-0.55c0.496-0.11,1.009-0.22,1.529-0.187
							c0.524-0.013,1.026,0.091,1.512,0.213c0.249,0.043,0.464,0.162,0.69,0.246c0.221,0.094,0.446,0.172,0.637,0.3
							c0.81,0.437,1.42,1.014,1.88,1.536c0.444,0.545,0.741,1.038,0.907,1.412C114.018,124.509,114.069,124.741,114.069,124.741z"/>
					</g>
					<g>
						<path style="fill:#030121;" d="M98.945,125.195c0,0-0.252-0.185-0.694-0.509c-0.433-0.318-1.067-0.738-1.814-1.186
							c-0.377-0.221-0.789-0.44-1.228-0.641c-0.421-0.237-0.909-0.368-1.372-0.564c-0.491-0.117-0.972-0.3-1.485-0.341
							c-0.502-0.115-1.019-0.086-1.532-0.101c-0.257-0.032-0.514,0.058-0.77,0.077c-0.254,0.049-0.517,0.035-0.769,0.108
							c-0.495,0.175-1.015,0.239-1.493,0.439c-0.472,0.211-0.951,0.383-1.404,0.573c-0.427,0.242-0.85,0.455-1.248,0.653
							c-0.403,0.189-0.757,0.4-1.067,0.599c-0.309,0.198-0.599,0.354-0.835,0.489c-0.476,0.266-0.774,0.405-0.774,0.405
							s0.142-0.281,0.437-0.748c0.149-0.232,0.327-0.521,0.555-0.835c0.113-0.16,0.232-0.329,0.359-0.508
							c0.133-0.174,0.307-0.322,0.472-0.497c0.336-0.343,0.709-0.716,1.123-1.094c0.45-0.334,0.959-0.656,1.488-0.987
							c0.253-0.188,0.57-0.278,0.871-0.407c0.304-0.124,0.616-0.243,0.934-0.356c0.653-0.166,1.35-0.292,2.044-0.328
							c0.702,0.022,1.408,0.018,2.071,0.221c0.682,0.117,1.286,0.418,1.871,0.674c0.546,0.324,1.088,0.619,1.51,1.005
							c0.215,0.188,0.434,0.356,0.621,0.545c0.178,0.195,0.351,0.384,0.516,0.565c0.331,0.355,0.576,0.733,0.795,1.054
							c0.21,0.331,0.376,0.627,0.493,0.882C98.868,124.882,98.945,125.195,98.945,125.195z"/>
					</g>
					<g>
						<path style="fill:#030121;" d="M105.213,130.55c0,0,0.246,0.802,0.735,1.885c0.128,0.268,0.278,0.548,0.439,0.835
							c0.17,0.282,0.372,0.556,0.592,0.813c0.23,0.243,0.486,0.469,0.772,0.611c0.276,0.171,0.598,0.224,0.922,0.244l0.06,0.008
							l0.015,0.002c-0.107,0.006-0.019,0.001-0.038,0.002l0.038-0.003l0.152-0.013l0.304-0.027c0.146-0.054,0.252-0.072,0.392-0.14
							c0.268-0.147,0.538-0.322,0.74-0.587c0.428-0.501,0.705-1.134,0.91-1.686c0.39-1.119,0.555-1.944,0.555-1.944
							s0.2,0.821,0.038,2.087c-0.086,0.627-0.262,1.384-0.757,2.108c-0.239,0.361-0.586,0.706-1.023,0.938
							c-0.213,0.118-0.507,0.198-0.745,0.263l-0.303,0.036L108.861,136l-0.038,0.005l-0.076,0.005l-0.023-0.002L108.634,136
							c-0.482-0.035-0.983-0.153-1.388-0.413c-0.429-0.228-0.729-0.588-0.995-0.918c-0.255-0.343-0.431-0.705-0.574-1.049
							c-0.14-0.345-0.234-0.68-0.305-0.99C105.098,131.387,105.213,130.55,105.213,130.55z"/>
					</g>
					<g>
						<path style="fill:#030121;" d="M87.602,131.093c0,0,0.272,0.859,0.829,2.001c0.287,0.562,0.66,1.197,1.174,1.704
							c0.256,0.249,0.543,0.475,0.863,0.611c0.31,0.165,0.662,0.223,1.02,0.24l0.067,0.008c-0.014,0.002,0.077,0.002-0.022,0.006
							l0.041-0.003l0.163-0.013l0.326-0.026c0.189-0.036,0.294-0.088,0.452-0.128c0.296-0.157,0.603-0.312,0.831-0.583
							c0.485-0.504,0.808-1.163,1.042-1.746c0.228-0.589,0.378-1.112,0.477-1.481c0.1-0.37,0.148-0.589,0.148-0.589
							s0.22,0.882,0.013,2.242c-0.056,0.338-0.136,0.708-0.281,1.087c-0.148,0.377-0.323,0.786-0.63,1.148
							c-0.278,0.378-0.684,0.708-1.152,0.94c-0.246,0.095-0.554,0.195-0.789,0.238l-0.325,0.036l-0.163,0.018l-0.041,0.005
							c-0.126,0.007-0.063,0-0.103,0.001l-0.096-0.008c-0.51-0.034-1.034-0.149-1.479-0.398c-0.234-0.108-0.438-0.254-0.617-0.42
							c-0.198-0.148-0.342-0.335-0.497-0.506c-0.299-0.35-0.501-0.736-0.674-1.099c-0.166-0.366-0.279-0.723-0.365-1.054
							C87.483,131.992,87.602,131.093,87.602,131.093z"/>
					</g>
					<path style="fill:#FFFFFF;" d="M105.058,147.99c0,0-9.486,5.509-16.172-2.31"/>
				</g>
			</g>
		</g>
	</g>
</g>
</svg>
